<?xml version="1.0" encoding="UTF-8"?>
<svg width="36px" height="35px" viewBox="0 0 36 35" version="1.1" xmlns="http://www.w3.org/2000/svg" xmlns:xlink="http://www.w3.org/1999/xlink">
    <!-- Generator: Sketch 45.2 (43514) - http://www.bohemiancoding.com/sketch -->
    <title>logo.min</title>
    <desc>Created with Sketch.</desc>
    <defs></defs>
    <g id="Page-1" stroke="none" stroke-width="1" fill="none" fill-rule="evenodd">
        <g id="logo.min" fill-rule="nonzero" fill="#01B3E3">
            <path d="M11.818,0 L0,6.699 L0.001,22.129 L0.001,22.129 C-0.021,29.216 5.775,34.978 12.946,35 C15.317,35.007 17.542,34.386 19.458,33.294 L19.458,33.294 L29.031,27.858 C32.807,25.922 35.393,22.028 35.407,17.532 L35.408,1.417 L35.408,1.417 L35.408,1.417 L33.065,0.063 L23.466,5.423 L23.467,5.424 L23.467,5.424 L23.464,22.2 C23.462,22.914 23.43,23.436 23.242,24.318 C22.922,25.663 22.472,26.609 22.393,26.769 C21.661,26.719 20.115,26.3 18.881,25.573 C18.265,25.219 17.532,24.694 16.871,24.076 C16.444,23.652 16.057,23.185 15.721,22.69 C15.382,22.19 15.09,21.656 14.856,21.103 C14.617,20.54 14.434,19.951 14.312,19.353 C14.187,18.738 14.159,18.104 14.16,17.469 L14.16,17.469 L14.168,1.355 L11.818,0 Z M17.257,31.841 C16.616,32.107 15.946,32.31 15.264,32.446 C14.564,32.585 13.918,32.655 13.196,32.653 C12.474,32.651 11.753,32.577 11.053,32.433 C10.372,32.293 9.703,32.086 9.064,31.816 C8.436,31.551 7.83,31.224 7.263,30.843 C5.801,29.828 5.047,28.949 4.399,27.996 C4.017,27.434 3.69,26.833 3.425,26.211 C3.156,25.578 2.95,24.915 2.813,24.242 C2.672,23.55 2.646,22.837 2.648,22.123 L2.647,8.039 L11.509,2.694 L11.498,17.462 L11.498,17.462 C11.481,23.074 15.662,27.758 21.001,28.89 C20.792,29.137 20.641,29.374 20.41,29.601 C19.927,30.075 19.406,30.519 18.842,30.893 C18.273,31.27 17.886,31.58 17.257,31.841 Z M32.607,19.436 C32.481,20.034 32.295,20.621 32.052,21.183 C31.408,22.595 30.36,23.795 29.484,24.568 C27.696,26.193 25.468,26.695 25.211,26.696 C25.747,25.296 26.108,23.796 26.114,22.211 L26.114,22.211 L26.113,6.777 L26.113,6.777 L32.76,2.757 L32.763,17.525 C32.761,18.16 32.736,18.821 32.607,19.436 Z" id="mark_3_"></path>
        </g>
    </g>
</svg>